REM DIRINDEX 1\2,1\3
REM DIRNAME cjc039,folder01,folder02
TITLE ""
FILE "0881-0920.mp3" MP3
  TRACK 01 AUDIO
    TITLE "0:"
    INDEX 01 00:00:00
  TRACK 02 AUDIO
    TITLE "2:cjc039_0881"
    INDEX 01 00:00:27
  TRACK 03 AUDIO
    TITLE "0:"
    INDEX 01 00:01:40
  TRACK 04 AUDIO
    TITLE "2:cjc039_0882"
    INDEX 01 00:02:12
  TRACK 05 AUDIO
    TITLE "0:"
    INDEX 01 00:03:53
  TRACK 06 AUDIO
    TITLE "2:cjc039_0883"
    INDEX 01 00:04:33
  TRACK 07 AUDIO
    TITLE "0:"
    INDEX 01 00:05:61
  TRACK 08 AUDIO
    TITLE "2:cjc039_0884"
    INDEX 01 00:06:35
  TRACK 09 AUDIO
    TITLE "0:"
    INDEX 01 00:07:58
  TRACK 10 AUDIO
    TITLE "2:cjc039_0885"
    INDEX 01 00:08:46
  TRACK 11 AUDIO
    TITLE "0:"
    INDEX 01 00:10:25
  TRACK 12 AUDIO
    TITLE "2:cjc039_0886"
    INDEX 01 00:10:74
  TRACK 13 AUDIO
    TITLE "0:"
    INDEX 01 00:12:30
  TRACK 14 AUDIO
    TITLE "2:cjc039_0887"
    INDEX 01 00:12:73
  TRACK 15 AUDIO
    TITLE "0:"
    INDEX 01 00:14:23
  TRACK 16 AUDIO
    TITLE "2:cjc039_0888"
    INDEX 01 00:15:05
  TRACK 17 AUDIO
    TITLE "0:"
    INDEX 01 00:16:38
  TRACK 18 AUDIO
    TITLE "2:cjc039_0889"
    INDEX 01 00:17:21
  TRACK 19 AUDIO
    TITLE "0:"
    INDEX 01 00:18:60
  TRACK 20 AUDIO
    TITLE "2:cjc039_0890"
    INDEX 01 00:19:32
  TRACK 21 AUDIO
    TITLE "0:"
    INDEX 01 00:20:49
  TRACK 22 AUDIO
    TITLE "2:cjc039_0891"
    INDEX 01 00:21:27
  TRACK 23 AUDIO
    TITLE "0:"
    INDEX 01 00:22:46
  TRACK 24 AUDIO
    TITLE "2:cjc039_0892"
    INDEX 01 00:23:22
  TRACK 25 AUDIO
    TITLE "0:"
    INDEX 01 00:24:67
  TRACK 26 AUDIO
    TITLE "2:cjc039_0893"
    INDEX 01 00:25:45
  TRACK 27 AUDIO
    TITLE "0:"
    INDEX 01 00:26:58
  TRACK 28 AUDIO
    TITLE "2:cjc039_0894"
    INDEX 01 00:27:38
  TRACK 29 AUDIO
    TITLE "0:"
    INDEX 01 00:28:70
  TRACK 30 AUDIO
    TITLE "2:cjc039_0895"
    INDEX 01 00:29:44
  TRACK 31 AUDIO
    TITLE "0:"
    INDEX 01 00:30:69
  TRACK 32 AUDIO
    TITLE "2:cjc039_0896"
    INDEX 01 00:31:43
  TRACK 33 AUDIO
    TITLE "0:"
    INDEX 01 00:32:60
  TRACK 34 AUDIO
    TITLE "2:cjc039_0897"
    INDEX 01 00:33:38
  TRACK 35 AUDIO
    TITLE "0:"
    INDEX 01 00:34:71
  TRACK 36 AUDIO
    TITLE "2:cjc039_0898"
    INDEX 01 00:35:47
  TRACK 37 AUDIO
    TITLE "0:"
    INDEX 01 00:37:10
  TRACK 38 AUDIO
    TITLE "2:cjc039_0899"
    INDEX 01 00:37:61
  TRACK 39 AUDIO
    TITLE "0:"
    INDEX 01 00:39:52
  TRACK 40 AUDIO
    TITLE "2:cjc039_0900"
    INDEX 01 00:40:30
  TRACK 41 AUDIO
    TITLE "0:"
    INDEX 01 00:41:57
  TRACK 42 AUDIO
    TITLE "2:cjc039_0901"
    INDEX 01 00:42:39
  TRACK 43 AUDIO
    TITLE "0:"
    INDEX 01 00:43:74
  TRACK 44 AUDIO
    TITLE "2:cjc039_0902"
    INDEX 01 00:44:54
  TRACK 45 AUDIO
    TITLE "0:"
    INDEX 01 00:45:73
  TRACK 46 AUDIO
    TITLE "2:cjc039_0903"
    INDEX 01 00:46:56
  TRACK 47 AUDIO
    TITLE "0:"
    INDEX 01 00:48:08
  TRACK 48 AUDIO
    TITLE "2:cjc039_0904"
    INDEX 01 00:48:57
  TRACK 49 AUDIO
    TITLE "0:"
    INDEX 01 00:50:29
  TRACK 50 AUDIO
    TITLE "2:cjc039_0905"
    INDEX 01 00:51:09
  TRACK 51 AUDIO
    TITLE "0:"
    INDEX 01 00:52:26
  TRACK 52 AUDIO
    TITLE "2:cjc039_0906"
    INDEX 01 00:53:00
  TRACK 53 AUDIO
    TITLE "0:"
    INDEX 01 00:54:19
  TRACK 54 AUDIO
    TITLE "2:cjc039_0907"
    INDEX 01 00:54:68
  TRACK 55 AUDIO
    TITLE "0:"
    INDEX 01 00:56:41
  TRACK 56 AUDIO
    TITLE "2:cjc039_0908"
    INDEX 01 00:57:17
  TRACK 57 AUDIO
    TITLE "0:"
    INDEX 01 00:58:34
  TRACK 58 AUDIO
    TITLE "2:cjc039_0909"
    INDEX 01 00:59:10
  TRACK 59 AUDIO
    TITLE "0:"
    INDEX 01 01:00:43
  TRACK 60 AUDIO
    TITLE "2:cjc039_0910"
    INDEX 01 01:01:17
  TRACK 61 AUDIO
    TITLE "0:"
    INDEX 01 01:02:26
  TRACK 62 AUDIO
    TITLE "2:cjc039_0911"
    INDEX 01 01:03:06
  TRACK 63 AUDIO
    TITLE "0:"
    INDEX 01 01:04:17
  TRACK 64 AUDIO
    TITLE "2:cjc039_0912"
    INDEX 01 01:04:72
  TRACK 65 AUDIO
    TITLE "0:"
    INDEX 01 01:06:20
  TRACK 66 AUDIO
    TITLE "2:cjc039_0913"
    INDEX 01 01:06:69
  TRACK 67 AUDIO
    TITLE "0:"
    INDEX 01 01:08:13
  TRACK 68 AUDIO
    TITLE "2:cjc039_0914"
    INDEX 01 01:08:68
  TRACK 69 AUDIO
    TITLE "0:"
    INDEX 01 01:10:10
  TRACK 70 AUDIO
    TITLE "2:cjc039_0915"
    INDEX 01 01:10:59
  TRACK 71 AUDIO
    TITLE "0:"
    INDEX 01 01:12:01
  TRACK 72 AUDIO
    TITLE "2:cjc039_0916"
    INDEX 01 01:12:54
  TRACK 73 AUDIO
    TITLE "0:"
    INDEX 01 01:14:29
  TRACK 74 AUDIO
    TITLE "2:cjc039_0917"
    INDEX 01 01:15:09
  TRACK 75 AUDIO
    TITLE "0:"
    INDEX 01 01:16:26
  TRACK 76 AUDIO
    TITLE "2:cjc039_0918"
    INDEX 01 01:16:73
  TRACK 77 AUDIO
    TITLE "0:"
    INDEX 01 01:18:31
  TRACK 78 AUDIO
    TITLE "2:cjc039_0919"
    INDEX 01 01:19:09
  TRACK 79 AUDIO
    TITLE "0:"
    INDEX 01 01:20:32
  TRACK 80 AUDIO
    TITLE "2:cjc039_0920"
    INDEX 01 01:21:08
  TRACK 81 AUDIO
    TITLE "0:"
    INDEX 01 01:22:41
